<svg width="84" height="84" viewBox="0 0 84 84" fill="none" xmlns="http://www.w3.org/2000/svg">
<g clip-path="url(#clip0_1_158)" filter="url(#filter0_d_1_158)">
<path d="M42 76C62.9868 76 80 58.9868 80 38C80 17.0132 62.9868 0 42 0C21.0132 0 4 17.0132 4 38C4 58.9868 21.0132 76 42 76Z" fill="#FFF3E0"/>
<path d="M59.8415 34.199V46.3806C59.8415 47.8112 59.1913 49.1984 58.1075 50.1088C49.0472 57.3917 35.7385 57.6084 26.8949 50.1521C25.8112 49.1984 25.1609 47.8112 25.1609 46.3806V34.1123" fill="white"/>
<path d="M18.6583 31.2078L42.9348 42.0455L66.3442 31.2078L42.9348 20.3701L18.6583 31.2078Z" fill="#FF9C08"/>
<path d="M42.2844 56.915C36.4321 56.915 30.6231 55.0076 26.0712 51.1494C24.684 49.9789 23.9037 48.2449 23.9037 46.3808V34.1125C23.9037 33.3756 24.4672 32.812 25.2042 32.812C25.9412 32.812 26.5047 33.3756 26.5047 34.1125V46.3808C26.5047 47.4646 26.9816 48.4616 27.7619 49.1552C35.9552 56.0914 48.657 56.048 57.3272 49.1119C58.1508 48.4616 58.5843 47.4646 58.5843 46.3808V34.1992C58.5843 33.4623 59.1479 32.8987 59.8849 32.8987C60.6218 32.8987 61.1854 33.4623 61.1854 34.1992V46.3808C61.1854 48.2449 60.3617 49.9789 58.9311 51.106C54.0759 55.0076 48.1368 56.915 42.2844 56.915Z" fill="#090909"/>
<path d="M42.9348 43.346C42.7614 43.346 42.588 43.3026 42.4146 43.2159L18.1381 32.3782C17.6612 32.2048 17.3578 31.728 17.3578 31.2078C17.3578 30.6875 17.6612 30.2107 18.1381 30.0373L42.4146 19.1996C42.7614 19.0262 43.1515 19.0695 43.4983 19.1996L66.9078 30.0373C67.3846 30.254 67.6447 30.7309 67.6447 31.2078C67.6447 31.6846 67.3413 32.1615 66.9078 32.3782L43.4983 43.2159C43.3249 43.3026 43.1082 43.346 42.9348 43.346ZM21.8663 31.2078L42.9348 40.6149L63.2663 31.2078L42.9348 21.8006L21.8663 31.2078ZM66.3442 45.0367C65.6072 45.0367 65.0437 44.4731 65.0437 43.7361V35.5428C65.0437 34.8059 65.6072 34.2423 66.3442 34.2423C67.0812 34.2423 67.6447 34.8059 67.6447 35.5428V43.7361C67.6447 44.4297 67.0812 45.0367 66.3442 45.0367Z" fill="#090909"/>
</g>
<defs>
<filter id="filter0_d_1_158" x="0" y="0" width="84" height="84" filterUnits="userSpaceOnUse" color-interpolation-filters="sRGB">
<feFlood flood-opacity="0" result="BackgroundImageFix"/>
<feColorMatrix in="SourceAlpha" type="matrix" values="0 0 0 0 0 0 0 0 0 0 0 0 0 0 0 0 0 0 127 0" result="hardAlpha"/>
<feOffset dy="4"/>
<feGaussianBlur stdDeviation="2"/>
<feComposite in2="hardAlpha" operator="out"/>
<feColorMatrix type="matrix" values="0 0 0 0 0 0 0 0 0 0 0 0 0 0 0 0 0 0 0.25 0"/>
<feBlend mode="normal" in2="BackgroundImageFix" result="effect1_dropShadow_1_158"/>
<feBlend mode="normal" in="SourceGraphic" in2="effect1_dropShadow_1_158" result="shape"/>
</filter>
<clipPath id="clip0_1_158">
<rect width="76" height="76" fill="white" transform="translate(4)"/>
</clipPath>
</defs>
</svg>
