<svg width="200" height="33" viewBox="0 0 200 33" fill="none" xmlns="http://www.w3.org/2000/svg">
<g clip-path="url(#clip0_1_9)">
<path d="M34.4555 6.5516C32.8819 3.07243 29.6241 0.708381 25.9895 0.351543C23.0418 0.0839148 20.1386 0.842195 17.8115 2.51487C17.7894 2.53718 17.7672 2.55947 17.745 2.55947C17.7228 2.53718 17.7008 2.51487 17.6786 2.51487C15.3294 0.842195 12.4261 0.0839148 9.50067 0.373846C5.84384 0.708381 2.60813 3.07243 1.01244 6.5516C-0.694064 10.2761 -0.228654 14.5581 2.29786 18.5948C5.97681 24.4827 12.271 28.6755 16.9028 31.1511L17.6342 31.5079V31.5302H17.6564H17.6786L18.565 31.1734C23.197 28.6978 29.5133 24.505 33.17 18.6172C35.6966 14.5581 36.162 10.2761 34.4555 6.5516ZM30.156 16.4762C27.1198 21.3604 21.8451 24.9957 17.7008 27.3151V27.2482C13.5563 24.951 8.34819 21.3158 5.33411 16.4762C3.53895 13.5991 3.18435 10.6775 4.29248 8.22427C5.31194 5.99404 7.48386 4.41057 9.81088 4.18755C11.739 4.00913 13.5563 4.43287 15.0634 5.30267C14.1769 6.5739 13.5563 8.00125 13.2461 9.5401C12.6477 12.3725 13.1131 15.138 14.4428 16.8999C15.3072 18.0373 16.4818 18.6618 17.7228 18.6841C17.7228 18.6841 17.7228 18.6841 17.745 18.6841C17.745 18.6841 17.745 18.6841 17.7672 18.6841C19.0083 18.6841 20.1829 18.0373 21.0473 16.8999C22.3992 15.138 22.8424 12.3725 22.244 9.5401C22.0224 8.46961 21.6456 7.44369 21.1359 6.4847C19.9834 7.13146 19.0305 8.04586 18.3434 9.16098C18.4986 9.5401 18.6094 9.96384 18.698 10.3876C19.1191 12.4171 18.698 13.8891 18.2105 14.5136C18.1439 14.6251 17.9445 14.8481 17.745 14.8481C17.5456 14.8481 17.3683 14.6027 17.2797 14.5136C16.7921 13.8667 16.371 12.3948 16.7921 10.3876C17.6121 6.39548 21.3575 3.80841 25.657 4.20985C28.0062 4.43287 30.1782 6.01634 31.1755 8.24658C32.3058 10.6775 31.929 13.5991 30.156 16.4762Z" fill="#FF9C08"/>
<path d="M43.828 21.473V5.67385H49.637C50.8931 5.67385 51.9322 5.88451 52.7546 6.30582C53.577 6.72713 54.19 7.30642 54.5937 8.04372C54.9974 8.78103 55.1992 9.60856 55.1992 10.5265C55.1992 11.3991 55.0049 12.2042 54.6161 12.9414C54.2274 13.6637 53.6218 14.2505 52.7994 14.7019C51.9771 15.1382 50.9229 15.3564 49.637 15.3564H46.6989V21.473H43.828ZM46.6989 13.0092H49.4576C50.4594 13.0092 51.1771 12.791 51.6107 12.3546C52.0593 11.9032 52.2836 11.2938 52.2836 10.5265C52.2836 9.74397 52.0593 9.13463 51.6107 8.69825C51.1771 8.24685 50.4594 8.02115 49.4576 8.02115H46.6989V13.0092Z" fill="#090909"/>
<path d="M57.3843 21.473V5.22245H60.2552V11.9935C60.629 11.3766 61.1299 10.895 61.7578 10.549C62.4008 10.1878 63.1335 10.0073 63.9558 10.0073C65.3315 10.0073 66.3931 10.4437 67.1407 11.3164C67.9033 12.1891 68.2845 13.4681 68.2845 15.1533V21.473H65.4362V15.4241C65.4362 14.4612 65.2418 13.7238 64.853 13.2123C64.4792 12.7007 63.8811 12.4449 63.0588 12.4449C62.2513 12.4449 61.5784 12.7308 61.0402 13.3025C60.5168 13.8743 60.2552 14.6718 60.2552 15.695V21.473H57.3843Z" fill="#090909"/>
<path d="M72.5773 8.54026C72.054 8.54026 71.6203 8.38227 71.2765 8.06629C70.9475 7.7503 70.783 7.35157 70.783 6.87007C70.783 6.38858 70.9475 5.99736 71.2765 5.69643C71.6203 5.38044 72.054 5.22245 72.5773 5.22245C73.1007 5.22245 73.5268 5.38044 73.8557 5.69643C74.1997 5.99736 74.3716 6.38858 74.3716 6.87007C74.3716 7.35157 74.1997 7.7503 73.8557 8.06629C73.5268 8.38227 73.1007 8.54026 72.5773 8.54026ZM71.1419 21.473V10.2781H74.0127V21.473H71.1419Z" fill="#090909"/>
<path d="M77.0092 21.473V5.22245H79.8801V21.473H77.0092Z" fill="#090909"/>
<path d="M86.6485 21.7438C85.692 21.7438 84.9071 21.5933 84.2937 21.2923C83.6807 20.9764 83.2247 20.5626 82.9256 20.051C82.6265 19.5394 82.4771 18.9752 82.4771 18.3583C82.4771 17.3201 82.8807 16.4774 83.6879 15.8304C84.4954 15.1834 85.7071 14.8599 87.3213 14.8599H90.1473V14.589C90.1473 13.8217 89.9305 13.2574 89.4971 12.8963C89.0636 12.5352 88.5255 12.3546 87.882 12.3546C87.2996 12.3546 86.7908 12.4976 86.3573 12.7835C85.9238 13.0543 85.6544 13.4605 85.5498 14.0022H82.7462C82.8209 13.1897 83.0901 12.4825 83.5536 11.8806C84.0318 11.2788 84.6452 10.8198 85.3925 10.5039C86.1406 10.1729 86.9774 10.0073 87.9046 10.0073C89.4895 10.0073 90.7381 10.406 91.6502 11.2035C92.5623 12.001 93.0184 13.1295 93.0184 14.589V21.473H90.574L90.3046 19.6673C89.9757 20.2692 89.5121 20.7658 88.9138 21.1569C88.3305 21.5482 87.5757 21.7438 86.6485 21.7438ZM87.2996 19.4868C88.1213 19.4868 88.7573 19.216 89.2058 18.6742C89.6694 18.1326 89.9607 17.463 90.0803 16.6655H87.636C86.8728 16.6655 86.3272 16.8085 85.9983 17.0944C85.6694 17.3652 85.5046 17.7037 85.5046 18.11C85.5046 18.5463 85.6694 18.8849 85.9983 19.1256C86.3272 19.3664 86.7607 19.4868 87.2996 19.4868Z" fill="#090909"/>
<path d="M95.7581 21.473V10.2781H98.292L98.5163 12.174C98.8602 11.512 99.354 10.9853 99.9966 10.5942C100.655 10.2029 101.425 10.0073 102.307 10.0073C103.683 10.0073 104.751 10.4437 105.515 11.3163C106.277 12.1891 106.659 13.4681 106.659 15.1533V21.473H103.787V15.4241C103.787 14.4612 103.593 13.7238 103.204 13.2123C102.816 12.7007 102.21 12.4449 101.387 12.4449C100.58 12.4449 99.9146 12.7307 99.3916 13.3025C98.8828 13.8743 98.6293 14.6718 98.6293 15.695V21.473H95.7581Z" fill="#090909"/>
<path d="M114.36 21.473C113.194 21.473 112.259 21.1871 111.556 20.6153C110.854 20.0435 110.502 19.0278 110.502 17.5683V12.6932H108.596V10.2781H110.502L110.838 7.27633H113.373V10.2781H116.379V12.6932H113.373V17.5909C113.373 18.1326 113.485 18.5088 113.71 18.7194C113.949 18.915 114.352 19.0128 114.921 19.0128H116.311V21.473H114.36Z" fill="#090909"/>
<path d="M118.844 21.473V5.22245H121.715V11.9935C122.088 11.3766 122.589 10.895 123.217 10.549C123.86 10.1878 124.592 10.0073 125.415 10.0073C126.791 10.0073 127.853 10.4437 128.6 11.3164C129.362 12.1891 129.744 13.4681 129.744 15.1533V21.473H126.895V15.4241C126.895 14.4612 126.701 13.7238 126.312 13.2123C125.938 12.7007 125.341 12.4449 124.518 12.4449C123.71 12.4449 123.038 12.7308 122.5 13.3025C121.976 13.8743 121.715 14.6718 121.715 15.695V21.473H118.844Z" fill="#090909"/>
<path d="M132.489 21.473V10.2781H135.046L135.315 12.3771C135.719 11.655 136.264 11.0832 136.952 10.6619C137.655 10.2255 138.478 10.0073 139.419 10.0073V13.0543H138.612C137.984 13.0543 137.423 13.1521 136.93 13.3477C136.437 13.5433 136.048 13.8818 135.764 14.3633C135.495 14.8449 135.36 15.5144 135.36 16.3721V21.473H132.489Z" fill="#090909"/>
<path d="M146.522 21.7438C145.446 21.7438 144.474 21.4956 143.607 20.999C142.755 20.5025 142.074 19.8178 141.566 18.9451C141.072 18.0573 140.826 17.0342 140.826 15.8756C140.826 14.7169 141.079 13.7013 141.588 12.8286C142.096 11.9409 142.777 11.2486 143.629 10.7521C144.496 10.2555 145.469 10.0073 146.545 10.0073C147.607 10.0073 148.563 10.2555 149.416 10.7521C150.283 11.2486 150.963 11.9409 151.457 12.8286C151.965 13.7013 152.219 14.7169 152.219 15.8756C152.219 17.0342 151.965 18.0573 151.457 18.9451C150.963 19.8178 150.283 20.5025 149.416 20.999C148.548 21.4956 147.584 21.7438 146.522 21.7438ZM146.522 19.2385C147.27 19.2385 147.92 18.9601 148.474 18.4034C149.027 17.8316 149.304 16.989 149.304 15.8756C149.304 14.7621 149.027 13.927 148.474 13.3702C147.92 12.7985 147.278 12.5126 146.545 12.5126C145.782 12.5126 145.125 12.7985 144.572 13.3702C144.033 13.927 143.764 14.7621 143.764 15.8756C143.764 16.989 144.033 17.8316 144.572 18.4034C145.125 18.9601 145.775 19.2385 146.522 19.2385Z" fill="#090909"/>
<path d="M154.786 26.4384V10.2781H157.343L157.657 11.8806C158.016 11.3841 158.487 10.9478 159.07 10.5716C159.668 10.1954 160.438 10.0073 161.38 10.0073C162.427 10.0073 163.362 10.2631 164.183 10.7747C165.006 11.2863 165.656 11.986 166.135 12.8737C166.613 13.7615 166.853 14.7697 166.853 15.8982C166.853 17.0267 166.613 18.0347 166.135 18.9225C165.656 19.7953 165.006 20.4874 164.183 20.999C163.362 21.4956 162.427 21.7438 161.38 21.7438C160.543 21.7438 159.81 21.5858 159.182 21.2698C158.554 20.9538 158.046 20.5099 157.657 19.9382V26.4384H154.786ZM160.775 19.216C161.686 19.216 162.442 18.9075 163.04 18.2906C163.638 17.6737 163.937 16.8762 163.937 15.8982C163.937 14.9201 163.638 14.1151 163.04 13.4831C162.442 12.8512 161.686 12.5352 160.775 12.5352C159.848 12.5352 159.085 12.8512 158.487 13.4831C157.904 14.1 157.612 14.8975 157.612 15.8756C157.612 16.8536 157.904 17.6586 158.487 18.2906C159.085 18.9075 159.848 19.216 160.775 19.216Z" fill="#090909"/>
<path d="M169.8 26.4384L172.379 20.7281H171.706L167.378 10.2781H170.495L173.613 18.1552L176.865 10.2781H179.915L172.85 26.4384H169.8Z" fill="#090909"/>
<path d="M186.441 21.473L191.353 13.4831L186.374 5.67385H189.671L193.192 11.1809L196.422 5.67385H199.652L194.74 13.6185L199.764 21.473H196.467L192.9 15.8982L189.671 21.473H186.441Z" fill="#090909"/>
</g>
<defs>
<clipPath id="clip0_1_9">
<rect width="200" height="32" fill="white" transform="translate(0 0.21875)"/>
</clipPath>
</defs>
</svg>
